# xmcd
#
# Track frame offsets:
#	150
#	11841
#	24731
#	40781
#	56809
#	73481
#	89987
#	102501
#	117893
#	134541
#	146142
#	160223
#
# Disc length: 2309 seconds
#
# Revision: 1
# Processed by: cddbd v1.4PL0 Copyright (c) Steve Scherf et al.
# Submitted via: audiograbber 1.82.02
#
DISCID=bd09030c
DTITLE=CD Woods - Turn of the Key
DYEAR=1900
DGENRE=
TTITLE0=Louisiana Hayride
TTITLE1=Honey Do
TTITLE2=Endless Dream
TTITLE3=Turn of the Keys
TTITLE4=Rodeo Town
TTITLE5=Starlight-Starbright
TTITLE6=Ho Down
TTITLE7=More Than a Cowboy
TTITLE8=Givin' in Again
TTITLE9=I Forgot to Forget You
TTITLE10=Sunset
TTITLE11=Wet Paint
EXTD=
EXTT0=
EXTT1=
EXTT2=
EXTT3=
EXTT4=
EXTT5=
EXTT6=
EXTT7=
EXTT8=
EXTT9=
EXTT10=
EXTT11=
PLAYORDER=
